<?xml version="1.0" encoding="utf-8"?>
<!-- Generator: Adobe Illustrator 15.0.0, SVG Export Plug-In . SVG Version: 6.00 Build 0)  -->
<!DOCTYPE svg PUBLIC "-//W3C//DTD SVG 1.1//EN" "http://www.w3.org/Graphics/SVG/1.1/DTD/svg11.dtd">
<svg version="1.1" xmlns="http://www.w3.org/2000/svg" xmlns:xlink="http://www.w3.org/1999/xlink" x="0px" y="0px"
	 width="256px" height="256px" viewBox="0 0 256 256" enable-background="new 0 0 256 256" xml:space="preserve">
<path fill="#c2c2c2" d="M240.159,21.331c4.364,0,8.104,1.558,11.193,4.732C254.47,29.208,256,32.949,256,37.285v181.458
	c0,4.308-1.53,8.104-4.647,11.222c-3.089,3.174-6.829,4.704-11.193,4.704H15.954c-4.336,0-8.104-1.53-11.25-4.704
	C1.559,226.848,0,223.051,0,218.743V37.285c0-4.335,1.559-8.076,4.704-11.222c3.146-3.174,6.914-4.732,11.25-4.732H240.159
	L240.159,21.331z M234.747,42.726H21.395v170.577h213.353V42.726z M64.298,106.881c-6.093,0-11.25-2.069-15.416-6.234
	c-4.166-4.166-6.234-9.181-6.234-15.019c0-6.092,2.069-11.25,6.234-15.415c4.166-4.166,9.323-6.234,15.416-6.234
	c5.837,0,10.853,2.068,15.019,6.234c4.166,4.166,6.234,9.323,6.234,15.415c0,5.838-2.069,10.854-6.234,15.019
	S70.135,106.881,64.298,106.881z M213.353,192.049H42.647v-14.564l38.482-50.03l26.099,21.679l49.166-74.613l56.958,58.914V192.049z
	"/>
</svg>
